<svg xmlns="http://www.w3.org/2000/svg" width="72" height="72" fill="none" viewBox="0 0 72 72">
  <path fill="#F0DB4F" d="M0 0h72v72H0V0z"/>
  <path fill="#323330" d="M66.107 54.828c-.527-3.285-2.669-6.043-9.014-8.617-2.203-1.012-4.66-1.738-5.393-3.408-.26-.972-.294-1.52-.13-2.108.473-1.91 2.752-2.505 4.559-1.957 1.163.39 2.265 1.286 2.929 2.717 3.107-2.012 3.1-1.999 5.27-3.381-.794-1.232-1.219-1.8-1.739-2.327-1.868-2.088-4.414-3.162-8.486-3.08-.705.089-1.417.185-2.122.274-2.033.513-3.97 1.58-5.106 3.011-3.408 3.867-2.436 10.636 1.711 13.421 4.086 3.067 10.089 3.765 10.855 6.632.746 3.511-2.58 4.648-5.886 4.244-2.436-.507-3.791-1.745-5.256-3.997-2.697 1.56-2.697 1.56-5.468 3.155.656 1.437 1.348 2.087 2.45 3.333 5.215 5.29 18.267 5.03 20.607-2.977.096-.274.726-2.108.22-4.935zM39.141 33.091h-6.734c0 5.818-.027 11.594-.027 17.412 0 3.702.191 7.097-.411 8.137-.986 2.047-3.539 1.793-4.702 1.396-1.184-.581-1.786-1.41-2.484-2.58-.192-.335-.336-.595-.384-.616-1.827 1.116-3.648 2.238-5.475 3.354.91 1.868 2.252 3.49 3.97 4.544 2.566 1.54 6.016 2.013 9.622 1.184 2.348-.684 4.374-2.1 5.435-4.257 1.533-2.826 1.204-6.248 1.19-10.033.035-6.173 0-12.347 0-18.54z"/>
</svg>
