<svg xmlns="http://www.w3.org/2000/svg" width="81" height="72" fill="none" viewBox="0 0 81 72">
  <path fill="#61DAFB" d="M80.85 36.008c0-5.356-6.708-10.431-16.991-13.58C66.232 11.949 65.177 3.61 60.53.94 59.46.313 58.206.016 56.84.016v3.675c.758 0 1.367.149 1.878.429 2.242 1.285 3.214 6.18 2.456 12.475-.181 1.55-.478 3.18-.84 4.845-3.23-.79-6.757-1.4-10.465-1.796-2.225-3.049-4.532-5.817-6.856-8.24 5.373-4.993 10.415-7.729 13.843-7.729V0c-4.532 0-10.464 3.23-16.463 8.833C34.393 3.263 28.46.066 23.929.066V3.74c3.41 0 8.47 2.72 13.843 7.68a77.837 77.837 0 00-6.807 8.223c-3.724.395-7.25 1.005-10.48 1.813a49.711 49.711 0 01-.858-4.78c-.774-6.295.182-11.19 2.406-12.491.495-.297 1.137-.429 1.896-.429V.082c-1.385 0-2.637.297-3.725.923-4.63 2.67-5.669 10.992-3.28 21.44C6.675 25.61 0 30.67 0 36.008c0 5.356 6.707 10.432 16.99 13.58-2.372 10.48-1.318 18.82 3.33 21.49 1.07.625 2.323.922 3.707.922 4.532 0 10.465-3.23 16.464-8.833 5.998 5.57 11.931 8.767 16.463 8.767 1.384 0 2.637-.297 3.724-.923 4.631-2.67 5.67-10.992 3.28-21.44 10.217-3.148 16.892-8.223 16.892-13.563zM59.393 25.016a74.195 74.195 0 01-2.225 6.51 78.015 78.015 0 00-2.159-3.955 89.22 89.22 0 00-2.373-3.857c2.34.346 4.598.775 6.757 1.302zm-7.548 17.551c-1.285 2.225-2.603 4.334-3.971 6.295-2.456.215-4.944.33-7.45.33-2.488 0-4.976-.115-7.415-.313a90.88 90.88 0 01-3.988-6.262 85.84 85.84 0 01-3.428-6.56 85.902 85.902 0 013.411-6.575c1.286-2.224 2.604-4.334 3.972-6.295a85.762 85.762 0 017.449-.33c2.488 0 4.977.116 7.416.314a90.842 90.842 0 013.988 6.262 85.827 85.827 0 013.428 6.559 92.283 92.283 0 01-3.412 6.575zm5.323-2.142a70.657 70.657 0 012.275 6.559 73.925 73.925 0 01-6.79 1.318 91.032 91.032 0 002.373-3.906 93.49 93.49 0 002.142-3.971zm-16.71 17.584a67.95 67.95 0 01-4.582-5.274c1.484.066 3 .115 4.532.115 1.55 0 3.082-.032 4.582-.115a64.348 64.348 0 01-4.532 5.274zm-12.261-9.707A74.317 74.317 0 0121.44 47a74.218 74.218 0 012.225-6.51 77.977 77.977 0 002.159 3.956 109.1 109.1 0 002.373 3.856zm12.178-34.294a67.952 67.952 0 014.582 5.273c-1.483-.066-3-.115-4.532-.115-1.55 0-3.082.033-4.581.115a64.293 64.293 0 014.531-5.273zM28.18 23.714a91.097 91.097 0 00-4.515 7.861 70.626 70.626 0 01-2.274-6.559 80.038 80.038 0 016.79-1.302zM13.266 44.347c-5.834-2.489-9.607-5.751-9.607-8.339 0-2.587 3.773-5.867 9.607-8.339 1.418-.61 2.967-1.153 4.565-1.664.94 3.23 2.175 6.592 3.708 10.036-1.516 3.428-2.736 6.773-3.659 9.987a50.08 50.08 0 01-4.614-1.681zm8.866 23.55c-2.24-1.286-3.213-6.18-2.455-12.476.181-1.549.478-3.18.84-4.845 3.23.791 6.757 1.401 10.465 1.797 2.225 3.048 4.532 5.817 6.855 8.24-5.372 4.993-10.415 7.728-13.843 7.728-.741-.016-1.367-.164-1.862-.444zm39.09-12.558c.775 6.295-.181 11.19-2.406 12.492-.494.296-1.137.428-1.895.428-3.411 0-8.47-2.72-13.843-7.68a77.836 77.836 0 006.806-8.223c3.725-.395 7.251-1.005 10.481-1.813.38 1.665.676 3.263.857 4.796zm6.345-10.992c-1.417.61-2.966 1.154-4.565 1.664-.94-3.23-2.175-6.592-3.708-10.036 1.516-3.428 2.736-6.773 3.659-9.986 1.631.51 3.18 1.07 4.63 1.68 5.834 2.489 9.608 5.752 9.608 8.34-.016 2.587-3.79 5.866-9.624 8.338z"/>
  <path fill="#61DAFB" d="M40.408 43.54a7.531 7.531 0 100-15.063 7.531 7.531 0 000 15.062z"/>
</svg>
